<svg xmlns="http://www.w3.org/2000/svg" viewBox="0 0 324.29 47.62"><defs><style>.cls-1{fill:#1b1b1b;}.cls-2{font-size:8px;font-family:Arial-BoldMT, Arial;font-weight:700;}</style></defs><title>Aldila new</title><g id="Layer_2" data-name="Layer 2"><g id="Layer_1" data-name="Layer 1"><polygon class="cls-1" points="40.82 0.26 28.47 0.26 0 47.62 34.13 47.62 40.08 37.52 18.52 37.52 34.22 10.91 56.02 47.62 69.3 47.62 40.82 0.26"/><polygon class="cls-1" points="295.82 0.26 283.47 0.26 255 47.62 289.13 47.62 295.08 37.52 273.52 37.52 289.22 10.91 311.02 47.62 324.3 47.62 295.82 0.26"/><line class="cls-1" x1="35.82" y1="37.45" x2="35.81" y2="37.52"/><rect class="cls-1" x="190.21" y="0.26" width="11.08" height="47.36"/><polygon class="cls-1" points="294.73 37.45 294.71 37.52 294.75 37.45 294.73 37.45"/><path class="cls-1" d="M171.25.26H120.12V47.62h51.13a10.1,10.1,0,0,0,10-8.87V9.12A10.1,10.1,0,0,0,171.25.26Zm-1.06,32.21a5,5,0,0,1-4.43,5H131.2v-27h34.57a5,5,0,0,1,4.42,5Z"/><path class="cls-1" d="M87.11,37.45a2.36,2.36,0,0,1-2.36-2.36V.26H73.68V43l0,0a5,5,0,0,0,5,4.63h33.85V37.45Z"/><path class="cls-1" d="M223.65,37.45a2.36,2.36,0,0,1-2.36-2.36V.26H210.22V43l0,0a5,5,0,0,0,5,4.63h33.85V37.45Z"/><text class="cls-2" transform="translate(311.59 6.86)">®</text></g></g></svg>