<svg version="1.1" id="Layer_1" xmlns="http://www.w3.org/2000/svg" xmlns:xlink="http://www.w3.org/1999/xlink" x="0px" y="0px"
	 viewBox="0 0 646.7 93.3" style="enable-background:new 0 0 646.7 93.3;" xml:space="preserve">
<g fill="#ffffff">
	<path d="M88.2,32.9H60.7c-1.1-3.5-2.8-6.2-5.4-8c-2.5-1.9-5.5-2.8-9.1-2.8c-5,0-9.1,2-12.4,6c-3.3,4-5,10.4-5,19.2
		c0,8.6,1.6,14.8,4.9,18.7c3.3,3.9,7.6,5.8,12.8,5.8c4.1,0,7.6-1.1,10.5-3.2c2.9-2.2,4.6-4.6,5.2-7.2H49.6V42.3h39.8V91H70.5
		l-1.2-8.7C67,85,65,86.9,63.3,88.1c-2.2,1.5-5,2.8-8.3,3.8c-3.3,1-7.2,1.5-11.6,1.5c-8.2,0-15.5-1.7-22-5
		C14.9,85,9.8,79.7,5.9,72.6C2,65.4,0,57.1,0,47.6C0,40.2,1.2,33.3,3.6,27c2-5.2,5-9.8,9-13.9c4-4.1,8.6-7.2,13.6-9.2
		c6.3-2.5,13.1-3.8,20.5-3.8c8.3,0,15.6,1.6,21.8,4.9c6.2,3.3,11.1,7.8,14.5,13.4C85.4,22.3,87.1,27.1,88.2,32.9z"/>
	<path d="M134.1,24.9c11.6,0,20.6,3.1,27.1,9.3c6.4,6.2,9.6,14.5,9.6,24.9c0,6.5-1.4,12.3-4.1,17.4c-2.7,5-7,9.1-12.8,12
		c-5.8,3-12.4,4.5-19.7,4.5c-6.1,0-11.9-1.1-17.6-3.4c-5.7-2.2-10.2-6-13.7-11.2c-3.5-5.2-5.2-11.6-5.2-19.2c0-10.4,3.2-18.7,9.7-25
		C113.7,28.1,122.6,24.9,134.1,24.9z M134.4,75.7c1.9,0,3.6-0.5,5.3-1.6c1.7-1,3-2.9,3.9-5.5c1-2.6,1.4-5.9,1.4-9.9
		c0-5.9-1.2-10.3-3.6-13.4c-1.7-2.3-4.1-3.4-7.2-3.4c-3.2,0-5.8,1.3-7.9,4c-2.1,2.7-3.1,7.1-3.1,13.3c0,4,0.5,7.2,1.5,9.6
		c1,2.4,2.4,4.2,4.1,5.2C130.7,75.1,132.5,75.7,134.4,75.7z"/>
	<path d="M178.6,91V2.4H204V91H178.6z"/>
	<path d="M255.3,0.2v16.1c-1.1-0.1-2-0.1-2.6-0.1c-3.3,0-5.6,0.6-6.7,1.7c-1.1,1.2-1.7,3.4-1.7,6.7v2.2h11v14.6h-11V91H219V41.4
		h-8.4V26.8h8.5c-0.1-6.1,0.5-11,1.6-14.6c0.9-2.8,2.4-5.1,4.5-7c2.1-1.9,4.4-3.1,6.9-3.8c3.7-0.9,9-1.4,16.2-1.4
		C249.8,0,252.1,0.1,255.3,0.2z"/>
	<path d="M299.9,91V2.5H336c8.4,0,14.8,0.4,19.1,1.2c4.3,0.8,7.8,1.9,10.6,3.3c2.7,1.4,5.3,3.4,7.6,6c2.3,2.6,4.1,5.5,5.2,8.7
		c1.2,3.2,1.8,6.9,1.8,10.9c0,4.6-0.7,8.7-2.2,12.3c-1.4,3.7-3.2,6.6-5.2,8.8c-2,2.2-4.1,3.9-6.2,5.1c-1.5,0.9-3.8,1.8-6.8,2.7
		c-4.7,1.4-9.7,2.1-14.9,2.1h-16.5V91H299.9z M328,23.9v18.5h10.4c4.1,0,7-0.3,8.6-0.8c1.6-0.5,3-1.5,4-3.1c1-1.5,1.6-3.4,1.6-5.6
		c0-3.5-1.2-5.8-3.6-7.1c-2.4-1.3-6.3-2-11.7-2H328z"/>
	<path d="M386.5,91V26.8h23.3v12.9c2.1-5.2,4.7-8.9,8-11.2c3.3-2.3,7.3-3.5,12.2-3.5c1.1,0,2.1,0.1,3,0.2v25.5
		c-2.5-0.4-4.5-0.6-5.8-0.6c-5,0-8.8,1.3-11.3,4c-2.5,2.7-3.8,7.1-3.8,13.2V91H386.5z"/>
	<path d="M442.6,0.1h25.6v18.4h-25.6V0.1z M442.6,91V26.8h25.6V91H442.6z"/>
	<path d="M522.2,33.2V2.4h25.6V91h-23v-8.7c-2.4,3.6-5.2,6.3-8.2,8c-3,1.7-6.9,2.6-11.6,2.6c-8.5,0-15.5-2.9-20.9-8.8
		s-8.2-13.9-8.2-24.1c0-7,1.2-13.2,3.7-18.7c2.5-5.4,5.9-9.5,10.4-12.3s9.3-4.1,14.3-4.1c4.2,0,7.9,0.8,11.1,2.4
		C517.7,28.5,520,30.4,522.2,33.2z M523.2,59.2c0-5.1-1-8.8-3-11.1c-2-2.3-4.6-3.5-7.8-3.5c-3.3,0-6,1.2-8,3.7
		c-2.1,2.4-3.1,6.4-3.1,11.8c0,5,0.9,8.7,2.8,10.9c1.9,2.3,4.4,3.4,7.5,3.4c3.4,0,6.2-1.2,8.3-3.6C522.1,68.3,523.2,64.4,523.2,59.2
		z"/>
	<path d="M629.7,64.7H581c0.2,3.8,1.4,6.8,3.6,8.9c2.2,2.1,5.4,3.2,9.4,3.2c4.4,0,7.5-1.7,9.3-5.2h24.4c-0.7,3.1-1.9,5.8-3.7,8.2
		c-2.9,3.9-7,7-12.3,9.5c-5.3,2.5-11.6,3.7-18.8,3.7c-11.6,0-20.7-3.1-27.3-9.3c-6.6-6.2-9.9-14.1-9.9-23.8c0-10.2,3.3-18.6,10-25.2
		c6.7-6.5,15.5-9.8,26.5-9.8c5.7,0,11.1,1,16.1,2.9c5,2,9.3,5,12.7,9.1c3.5,4.1,5.9,9,7.4,14.5C629.3,55.1,629.8,59.5,629.7,64.7z
		 M581.2,51.6h23.1c-0.1-3.5-1.2-6.2-3.3-8.3c-2.1-2-5-3-8.5-3c-3.2,0-5.8,1-7.8,2.9C582.7,45.1,581.5,47.9,581.2,51.6z"/>
	<path d="M646.7,24.8c0,1-0.2,1.9-0.6,2.9s-0.9,1.7-1.6,2.4s-1.4,1.2-2.2,1.6c-1,0.5-2.1,0.8-3.3,0.8c-1.1,0-2.1-0.2-3-0.6
		s-1.7-0.9-2.4-1.6s-1.1-1.3-1.5-2.1c-0.5-1.1-0.8-2.2-0.8-3.3c0-1.1,0.2-2.1,0.6-3s0.9-1.7,1.6-2.4s1.3-1.1,2.1-1.5
		c1-0.5,2.2-0.8,3.3-0.8c1.1,0,2.2,0.2,3.1,0.7s1.7,1,2.4,1.7s1.1,1.4,1.5,2.2C646.4,22.7,646.7,23.7,646.7,24.8z M639,18.6
		c-0.9,0-1.7,0.2-2.5,0.6c-0.6,0.3-1.2,0.7-1.7,1.2s-1,1.2-1.3,1.9s-0.5,1.6-0.5,2.5c0,1.1,0.3,2.1,0.8,3.1s1.3,1.7,2.3,2.3
		s2,0.8,3,0.8c1.1,0,2.1-0.3,3-0.8s1.7-1.3,2.3-2.3s0.8-2,0.8-3.1c0-0.9-0.2-1.8-0.6-2.7c-0.3-0.6-0.7-1.2-1.3-1.8s-1.2-1-1.9-1.3
		S639.8,18.6,639,18.6z M638.2,29h-2.5l0-8.4h3.6c1.2,0,2.1,0.2,2.6,0.7s0.8,1.1,0.8,1.8c0,0.6-0.2,1.1-0.5,1.5s-0.9,0.6-1.6,0.6
		c0.4,0,0.8,0.2,1.1,0.4s0.5,0.5,0.6,0.9s0.2,0.9,0.2,1.6c0,0.3,0,0.5,0,0.6c0,0.1,0,0.2,0.1,0.3h-2.4c-0.1-0.2-0.1-0.6-0.1-1.2
		s-0.1-0.9-0.2-1.1c-0.1-0.2-0.3-0.4-0.5-0.5s-0.7-0.1-1.3-0.1V29z M638.2,22.3v2.2h0.4c0.6,0,1-0.1,1.2-0.3s0.3-0.5,0.3-0.9
		c0-0.3-0.1-0.6-0.3-0.8s-0.6-0.3-1.2-0.3H638.2z"/>
</g>
</svg>
