<?xml version="1.0" encoding="UTF-8"?>
<svg width="90px" height="90px" viewBox="0 0 90 90" version="1.1" xmlns="http://www.w3.org/2000/svg" xmlns:xlink="http://www.w3.org/1999/xlink">
    <!-- Generator: sketchtool 51.3 (57544) - http://www.bohemiancoding.com/sketch -->
    <title>8DF12B34-D839-4226-A63A-F8B95CC58864-16453-000011FFA9DBBB73</title>
    <desc>Created with sketchtool.</desc>
    <defs></defs>
    <g id="Drop-#1-–-Desktop-1366" stroke="none" stroke-width="1" fill="none" fill-rule="evenodd">
        <g id="Homepage-–-Desktop-1366---Non-Transactional" fill-rule="nonzero">
            <g id="Global-/-Elements-/-Header-Default-1366">
                <g id="Header">
                    <g id="-Mizuno-Logo-Square">
                        <g id="path-1-link" fill="#00138A">
                            <polygon id="path-1" points="0 90 90 90 90 0 0 0"></polygon>
                        </g>
                        <g id="path-2-link" transform="translate(12.000000, 24.000000)" fill="#FEFEFE">
                            <path d="M35.5713978,14.0666899 C33.6740411,15.5004364 31.9990662,18.1119501 31.8096538,20.1061016 C30.8115213,18.5898656 28.4952593,16.2369501 26.4511564,15.0827514 C26.8713851,15.0979197 27.2773654,15.1060123 27.6767763,15.1060123 C30.0183547,15.1060123 32.1341421,14.8278706 35.5713978,14.0666899 Z M65.4455538,0.1875 C61.4032466,2.28836417 56.1565867,4.44029329 51.3734377,5.92445006 C40.7100991,9.23385125 34.3321362,11.1972329 26.1162908,11.3602479 C25.9988703,11.3625617 25.8837491,11.3637159 25.7709273,11.3637159 C20.2015513,11.3637159 20.2352815,8.5511917 25.8751616,3.5826641 C19.4150984,6.12347241 10.3795432,9.13106668 0.00969688263,11.4826728 C9.26052291,11.7458537 16.2849447,13.6503142 20.505028,16.1348202 C26.5158023,19.6694309 27.9742135,23.3827688 28.6529953,25.8371596 L37.5857635,25.8371596 C36.7867404,23.2400489 35.6063066,17.421264 40.6810085,13.8126746 C44.3069961,11.2371683 55.311665,8.192912 61.2073696,6.00497555 L65.4455538,0.1875 Z M60.0540871,30.6320269 C60.5376383,30.6320269 60.9229277,31.0254888 60.9229277,31.5138792 L60.9229277,35.0439071 C60.9229277,35.5303334 60.5356989,35.9296875 60.0534406,35.9296875 L58.7398362,35.9296875 C58.2582244,35.9296875 57.8664703,35.5303334 57.8664703,35.0439071 L57.8664703,31.5138792 C57.8664703,31.0254888 58.2582244,30.6320269 58.7398362,30.6320269 L60.0540871,30.6320269 Z M66.2943543,35.8779679 C66.4262319,35.8779679 66.5316047,36.0069396 66.5316047,36.1051414 C66.5316047,36.2026885 66.4488579,36.3329696 66.2943543,36.334279 L65.9775894,36.3323149 L65.9775894,35.8779679 L66.2943543,35.8779679 Z M66.3583537,35.6462116 L65.7080161,35.6462116 L65.7080161,37.1689944 L65.9775894,37.1689944 L65.9775894,36.5549057 L66.2865968,36.5575244 C66.3667576,36.5575244 66.502514,36.6642371 66.5128573,36.8036837 C66.5212613,36.9031948 66.5057463,37.163757 66.5542307,37.163757 L66.8309151,37.163757 C66.7817842,37.14739 66.7591582,36.9077776 66.7423502,36.7323237 C66.7210171,36.5031861 66.5587559,36.4416463 66.5212613,36.42397 C66.5723316,36.4200419 66.8076426,36.301545 66.8076426,36.0822276 C66.8076426,35.8478526 66.6111191,35.6455569 66.3583537,35.6455569 L66.3583537,35.6462116 Z M66.2458698,35.2691166 C66.8690562,35.2691166 67.3739405,35.7791114 67.3739405,36.4108764 C67.3739405,37.041332 66.8690562,37.5513268 66.2458698,37.5513268 C65.6239764,37.5513268 65.1184456,37.041332 65.1184456,36.4108764 C65.1184456,35.7791114 65.6239764,35.2691166 66.2458698,35.2691166 Z M66.2458698,35.1421089 C65.5548053,35.1421089 64.9943255,35.7103701 64.9943255,36.4108764 C64.9943255,37.1100733 65.5548053,37.6783345 66.2458698,37.6783345 C66.9388737,37.6783345 67.5,37.1100733 67.5,36.4108764 C67.5,35.7103701 66.9388737,35.1421089 66.2458698,35.1421089 Z M24.2900445,28.870941 L24.2900445,37.6868453 L25.8861514,37.6868453 C26.8480822,37.6868453 27.6180147,36.8979574 27.6180147,35.9237954 L27.6180147,28.870941 L24.2900445,28.870941 Z M28.6478236,28.870941 L28.6478236,30.6320269 L33.0618446,30.6320269 L29.1940813,34.9614176 C28.940023,35.2684619 28.7661256,35.6422835 28.7661256,36.0776449 L28.7661256,37.6868453 L36.7511852,37.6868453 L36.7511852,35.9296875 L32.3707801,35.9296875 L36.2320787,31.5989874 C36.4887229,31.2932524 36.6393478,30.8827688 36.6393478,30.4532996 L36.6393478,28.870941 L28.6478236,28.870941 Z M56.2968683,28.870941 C55.3336446,28.870941 54.5391467,29.6604836 54.5391467,30.635955 L54.5391467,35.922486 C54.5391467,36.8953387 55.3336446,37.6868453 56.2968683,37.6868453 L62.513863,37.6868453 C63.4764402,37.6868453 64.2476656,36.8953387 64.2476656,35.922486 L64.2476656,30.635955 C64.2476656,29.6604836 63.4764402,28.870941 62.513863,28.870941 L56.2968683,28.870941 Z M11.5871283,25.8378142 C10.3401092,25.8378142 9.22367476,26.4132769 8.4880046,27.3160789 L0,37.6875 L4.81353254,37.6875 L11.254202,29.8261173 C11.7383997,29.2427985 12.4637265,28.870941 13.2724465,28.870941 L15.0237035,28.870941 L7.8046976,37.6875 L12.6227554,37.6875 L19.0640713,29.8261173 C19.546976,29.2427985 20.2710099,28.870941 21.0842551,28.870941 L22.7844419,28.870941 L15.5945266,37.6875 L20.7623186,37.6875 C21.9673179,37.6875 22.9350668,36.698935 22.9350668,35.4792685 L22.9350668,25.8378142 L19.3963511,25.8378142 C18.1480391,25.8378142 17.0341905,26.4132769 16.296581,27.3167336 L15.0256429,28.8683223 L15.0256429,25.8378142 L11.5871283,25.8378142 Z M37.7900445,28.870941 L37.7900445,35.922486 C37.7900445,36.8959934 38.5806637,37.6875 39.5432409,37.6875 L45.5229852,37.6875 C46.4855624,37.6875 47.2535555,36.8959934 47.2535555,35.922486 L47.2535555,30.6320269 L49.1948714,30.6320269 C49.6771297,30.6320269 50.0675909,31.0209061 50.0675909,31.5106058 L50.0675909,37.6875 L53.395561,37.6875 L53.395561,30.6353003 C53.395561,29.6598289 52.6211033,28.870941 51.6591725,28.870941 L43.9255854,28.870941 L43.9255854,35.0445618 C43.9255854,35.5309881 43.5480534,35.9290328 43.0651487,35.9290328 L41.9978451,35.9290328 C41.5181727,35.9290328 41.1180147,35.5290241 41.1180147,35.0412884 L41.1180147,28.870941 L37.7900445,28.870941 Z" id="path-2"></path>
                        </g>
                    </g>
                </g>
            </g>
        </g>
    </g>
</svg>