<svg width="515" height="70" viewBox="0 0 515 70" xmlns="http://www.w3.org/2000/svg"><title>Nothing Feels Like A Mizuno</title><g fill-rule="nonzero" fill="none"><path d="M12.79 14.666l-.496 6.245h2.474v3.476h-2.834l-.854 10.05H8.2l.856-10.05H6.222l-.855 10.05H2.444l.854-10.05H.51V20.91h3.103l.585-6.244H1.364V11.19h3.15l.853-10H8.29l-.854 10h2.834l.855-10h2.923l-.9 10h2.79v3.476h-3.15zm-5.713 0l-.54 6.245H9.37l.585-6.244H7.077zM186.255 6.26v9.063h8.186v4.837h-8.14v14.275h-5.443V1.19h14.258v5.07h-8.86zm13.62 28.175V1.19h14.26v4.977h-9.087v8.828h8.41v4.602h-8.41v9.813h9.535v5.025h-14.708zm19.873 0V1.19h14.258v4.977h-9.085v8.828h8.412v4.602h-8.41v9.813h9.534v5.025h-14.708zm19.873 0V1.19h5.444v28.033h8.77v5.212H239.62zm30.49-26.812c-1.17-1.472-2.64-2.207-4.41-2.207-.51 0-1.003.086-1.483.258-.48.172-.915.446-1.305.822-.39.375-.697.86-.922 1.455-.225.596-.337 1.3-.337 2.114 0 1.41.405 2.497 1.214 3.264.81.767 1.874 1.495 3.194 2.183.78.408 1.575.878 2.385 1.41.81.532 1.544 1.174 2.204 1.925.658.752 1.198 1.644 1.618 2.677.42 1.033.63 2.254.63 3.662 0 1.628-.248 3.068-.743 4.32-.494 1.253-1.154 2.31-1.98 3.17-.823.86-1.79 1.51-2.9 1.95-1.11.437-2.28.656-3.508.656-1.77 0-3.403-.36-4.903-1.08-1.5-.72-2.698-1.628-3.598-2.723l2.924-4.133c.69.877 1.52 1.566 2.496 2.066.974.5 1.97.752 2.99.752 1.14 0 2.085-.407 2.835-1.22.75-.815 1.125-1.958 1.125-3.43 0-1.44-.45-2.582-1.35-3.427-.9-.845-2.038-1.628-3.418-2.348-.87-.438-1.686-.923-2.45-1.455-.766-.532-1.44-1.166-2.025-1.902s-1.05-1.597-1.394-2.583c-.345-.986-.518-2.167-.518-3.545 0-1.722.263-3.2.788-4.437.524-1.237 1.214-2.262 2.07-3.076.853-.815 1.82-1.417 2.9-1.81 1.08-.39 2.174-.586 3.283-.586 1.62 0 3.067.274 4.34.822 1.276.548 2.348 1.354 3.217 2.418l-2.968 4.04zm95.855 26.812l-1.574-7.044h-8.365l-1.62 7.045h-5.397l7.916-33.245h6.882l7.78 33.245h-5.62zm-5.622-27.94h-.18L356.7 22.978h7.016l-3.373-16.48z" fill="#A8A7A7"/><path fill="#514F4F" d="M34.64 34.435L25.6 10.957h-.135l.09 23.478h-4.858V1.19h6.162l8.95 23.62h.135L35.9 1.19h4.678v33.245M68.862 17.765c0 2.63-.263 5.017-.788 7.16-.524 2.145-1.28 3.985-2.27 5.518-.99 1.534-2.197 2.724-3.622 3.57-1.424.844-3.02 1.267-4.79 1.267-1.8 0-3.403-.423-4.813-1.268-1.41-.845-2.61-2.035-3.6-3.57-.988-1.532-1.745-3.372-2.27-5.516-.525-2.144-.787-4.53-.787-7.16s.255-5.01.764-7.138c.51-2.13 1.26-3.96 2.25-5.494.99-1.534 2.196-2.716 3.62-3.545C53.98.76 55.593.343 57.392.343c1.77 0 3.366.415 4.79 1.245 1.425.828 2.632 2.01 3.62 3.544.99 1.534 1.748 3.365 2.272 5.494.525 2.13.788 4.508.788 7.137zm-5.578 0c0-1.69-.127-3.28-.382-4.766-.255-1.488-.63-2.77-1.124-3.85-.495-1.08-1.11-1.934-1.845-2.56-.734-.627-1.58-.94-2.54-.94-.99 0-1.852.313-2.587.94-.735.626-1.35 1.48-1.844 2.56-.495 1.08-.862 2.362-1.102 3.85-.24 1.486-.36 3.075-.36 4.765 0 1.69.12 3.28.36 4.766.24 1.488.607 2.78 1.102 3.875.495 1.096 1.11 1.957 1.844 2.583.735.626 1.597.94 2.586.94.99 0 1.852-.314 2.586-.94.735-.626 1.35-1.487 1.844-2.583.495-1.095.863-2.387 1.102-3.874.24-1.486.36-3.074.36-4.765zM80.773 5.98v28.455h-5.307V5.98h-5.982V1.19h17.27v4.79M105.054 34.435V19.69H95.52v14.745h-5.354V1.19h5.353v13.476h9.534V1.19h5.352v33.245M117.146 34.435V1.19h5.397v33.245M143.225 34.435l-9.04-23.478h-.135l.09 23.478h-4.858V1.19h6.162l8.95 23.62h.136l-.045-23.62h4.678v33.245M174.838 32.416c-.96.814-2.107 1.47-3.44 1.972-1.336.5-2.932.75-4.79.75-1.89 0-3.585-.414-5.084-1.243-1.5-.83-2.766-2.012-3.8-3.545-1.035-1.534-1.83-3.366-2.384-5.494-.555-2.13-.833-4.493-.833-7.09 0-2.536.27-4.87.81-6.997.54-2.13 1.32-3.97 2.34-5.52 1.018-1.548 2.248-2.753 3.687-3.614 1.44-.86 3.06-1.292 4.858-1.292 1.89 0 3.523.353 4.902 1.057 1.38.705 2.504 1.7 3.374 2.983l-3.104 3.944c-1.2-1.816-2.818-2.724-4.857-2.724-1.11 0-2.077.33-2.9.987-.826.657-1.508 1.54-2.048 2.653-.54 1.11-.945 2.402-1.215 3.874-.27 1.47-.405 3.02-.405 4.648 0 1.69.135 3.28.405 4.766.27 1.488.674 2.787 1.214 3.9.54 1.11 1.22 1.98 2.046 2.605.824.626 1.806.94 2.946.94.72 0 1.37-.087 1.956-.26.585-.172 1.057-.398 1.417-.68v-8.593h-3.868v-4.884h8.77v16.858zM278.063 34.435V1.19h5.442v28.033h8.77v5.212M296.046 34.435V1.19h5.398v33.245M322.216 34.435l-8.5-16.153h-.136v16.153h-5.397V1.19h5.397v14.415h.135L321.81 1.19h6.073l-9.355 15.307 9.94 17.938M332.284 34.435V1.19h14.258v4.977h-9.086v8.828h8.41v4.602h-8.41v9.813h9.536v5.025M397.937 34.372l.09-25.544h-.135l-6.387 25.544h-4.228l-6.252-25.544h-.135l.09 25.544h-4.903V1.127h7.242l6.116 24.323h.18l5.982-24.323h7.6v33.245M409.81 34.372V1.127h5.398v33.245M419.556 34.372v-4.65L430.26 6.105h-9.984V1.127h15.922v4.555l-10.66 23.62h10.66v5.07M460.56 22.586c0 1.753-.178 3.397-.538 4.93-.36 1.534-.945 2.873-1.754 4.015-.81 1.144-1.852 2.044-3.126 2.7-1.275.66-2.827.987-4.656.987-1.83 0-3.373-.328-4.632-.986-1.26-.656-2.287-1.556-3.08-2.7-.796-1.14-1.366-2.48-1.71-4.013-.345-1.534-.518-3.178-.518-4.93V1.126h5.398V22.07c0 1.033.067 2.027.202 2.98.135.956.375 1.793.72 2.513.344.72.817 1.292 1.416 1.714.6.423 1.365.634 2.294.634.93 0 1.694-.21 2.294-.633.6-.422 1.072-.994 1.417-1.714s.585-1.557.72-2.512c.135-.953.202-1.947.202-2.98V1.127h5.35v21.46zM480.727 34.372l-9.04-23.478h-.136l.09 23.478h-4.857V1.127h6.162l8.95 23.62h.136l-.044-23.62h4.678v33.245M514.708 17.765c0 2.63-.263 5.017-.787 7.16-.524 2.145-1.28 3.985-2.27 5.518-.99 1.534-2.197 2.724-3.622 3.57-1.424.844-3.02 1.267-4.79 1.267-1.8 0-3.403-.423-4.812-1.268-1.41-.845-2.61-2.035-3.6-3.57-.988-1.532-1.745-3.372-2.27-5.516-.525-2.144-.787-4.53-.787-7.16s.254-5.01.763-7.138c.51-2.13 1.26-3.96 2.25-5.494.99-1.534 2.196-2.716 3.62-3.545 1.424-.83 3.036-1.246 4.835-1.246 1.77 0 3.366.415 4.79 1.245 1.425.828 2.632 2.01 3.62 3.544.99 1.534 1.748 3.365 2.273 5.494.525 2.13.788 4.508.788 7.137zm-5.578 0c0-1.69-.127-3.28-.382-4.766-.255-1.488-.63-2.77-1.124-3.85-.495-1.08-1.11-1.934-1.845-2.56-.735-.627-1.582-.94-2.542-.94-.99 0-1.85.313-2.586.94-.735.626-1.35 1.48-1.844 2.56-.495 1.08-.862 2.362-1.102 3.85-.24 1.486-.36 3.075-.36 4.765 0 1.69.12 3.28.36 4.766.24 1.488.607 2.78 1.102 3.875.495 1.096 1.11 1.957 1.844 2.583.735.626 1.597.94 2.586.94.99 0 1.852-.314 2.586-.94.735-.626 1.35-1.487 1.845-2.583.493-1.095.86-2.387 1.1-3.874.24-1.486.36-3.074.36-4.765z"/><g fill="#3778A5"><path d="M294 54.338l-.405-2.794h-.086c-1.227.243-2.613.506-3.978.7.224-1.318.415-2.624.586-3.92v-.09L286.865 48v.08c-.138 1.45-.35 2.968-.64 4.497-1.78.13-3.56.222-5.044.222h-.084l.107 2.916h.085c1.354 0 2.847-.142 4.32-.274-.96 4.214-2.51 8.286-4.608 12.11v.06L284.2 69v-.06c2.158-4.416 3.744-9.064 4.724-13.842 2.133-.253 3.68-.496 5.012-.74l.064-.02zM300.49 65.858c-1.595.315-3.223.477-4.856.484-2.964 0-3.782-.834-4.18-2.28V64l-2.454.817v.053c.613 2.935 2.494 4.128 6.685 4.128 1.786.02 3.57-.14 5.315-.475l-.45-2.692-.06.028z"/><path d="M292 56.757l.38 2.243h.1c1.842-.364 3.737-.555 5.64-.57 1.21-.018 2.422.03 3.624.145h.09l.166-2.387h-.09c-1.307-.133-2.626-.196-3.946-.187-2.008.005-4.002.267-5.897.774l-.067-.017zM325.574 48h-.047l-1.527.877.084.106c.91 1.187 1.676 2.506 2.277 3.922V53l1.565-.983H328v-.095c-.624-1.44-1.443-2.764-2.426-3.922zM323.308 53.897l.047.103L325 52.973v-.082c-.617-1.4-1.423-2.692-2.393-3.828L322.55 49l-1.55.903.075.093c.892 1.19 1.642 2.502 2.233 3.9zM317.067 56.77H317l.38 2.23h.1c1.843-.36 3.737-.547 5.64-.558 1.207-.018 2.415.03 3.612.144h.1l.168-2.383h-.078c-1.31-.14-2.634-.207-3.958-.203-2.008.004-4.002.264-5.897.77z"/><path d="M320 54.335l-.446-2.793h-.085c-1.212.263-2.593.496-3.995.678.213-1.285.415-2.6.585-3.906v-.08L312.873 48v.08c-.17 1.438-.382 2.956-.67 4.474-1.75.132-3.525.203-5.012.203h-.094l.16 2.945c1.337 0 2.813-.142 4.3-.274-.94 4.225-2.472 8.31-4.556 12.145v.06L310.186 69v-.06c2.146-4.423 3.73-9.075 4.716-13.856 2.07-.253 3.654-.485 4.98-.728l.118-.02zM326.46 65.87c-1.592.325-3.22.492-4.853.497-2.947 0-3.762-.84-4.16-2.295V64l-2.447.83v.055c.622 2.954 2.488 4.11 6.668 4.11 1.766.032 3.53-.113 5.26-.433H327l-.46-2.71-.08.018zM348.237 50.07V50l-2.7.6v.077c.525 2.305.79 4.663.785 7.027 0 5.2-1.964 8.303-5.36 8.303-2.23 0-3.663-1.63-3.663-4.152 0-2.257.686-5.083 5.772-8.95l-.825-2.267h-.03c-2.696.334-5.41.498-8.13.49H334l.177 2.945h.078c1.457-.045 2.91-.176 4.35-.393-3.456 3.023-4.193 6.193-4.193 8.293 0 4.2 2.642 7.027 6.58 7.027 4.908 0 7.853-3.867 7.853-10.09-.008-.604-.06-1.207-.157-1.805.723 1.808 1.673 3.517 2.828 5.084v.068L354 60.01v-.06c-2.66-2.802-4.634-6.185-5.763-9.88zM374.43 64.978c-2.515.637-5.1.973-7.7 1-3.94 0-4.47-1.12-4.47-2.21 0-1.44 1.017-2.7 3.17-4 2.69-1.51 5.593-2.62 8.615-3.29h.08l-1.015-3h-.06c-2.334.647-4.608 1.486-6.797 2.51-.714-2.245-1.194-4.556-1.432-6.898V49l-3.19.44v.07c.265 2.734.89 5.423 1.86 8-3.047 1.908-4.49 3.998-4.49 6.318 0 3.43 2.62 5.17 7.802 5.17 2.733.034 5.46-.248 8.127-.84h.07l-.498-3.22-.07.04zM391.28 52c-3.002 0-6.535.584-12.208 2.028H379l.932 3.176h.072c5.437-1.602 8.796-2.275 11.264-2.275 2.786 0 4.383 1.147 4.383 3.165 0 3.453-2.784 5.175-9.625 5.937h-.133L387.285 67h.102c7.71-.87 11.613-3.89 11.613-8.974-.05-2.88-2.07-6.026-7.72-6.026zM416.078 50C408.804 50 405 55.2 405 60.34c0 4.234 1.846 6.865 4.83 6.865 2.14 0 3.742-1.142 4.89-3.478 1.625-3.383 2.49-7.084 2.535-10.84 3.213.164 5.704 2.885 5.6 6.118 0 3.672-2.03 5.916-6.513 7.272h-.132L417.864 69h.08c5.347-1.724 8.056-5.1 8.056-9.995 0-5.303-4.078-9.005-9.922-9.005zm-4.14 12.524c-.7 1.305-1.318 1.57-2.028 1.57-.436 0-1.856-.275-1.856-3.783-.13-3.645 2.494-6.803 6.087-7.322-.064 3.298-.814 6.546-2.2 9.536zM501.182 55.894c-1.494.428-3.776 1.126-6.168 1.993-.485-1.684-1.575-2.432-3.524-2.432-.936.034-1.853.272-2.685.698.525-.738 1.01-1.615 1.494-2.402 2.32-.16 4.774-.368 7.298-.617h.08l-.2-2.62h-.092c-1.635.198-3.402.367-5.704.537.323-.678.697-1.455 1.01-2.253v-.08l-3.03-.717v.07c-.314 1.068-.702 2.113-1.16 3.13-1.616.08-3.322.12-5.513.12h-.08v2.75h.24c1.263 0 2.565 0 3.938-.1-1.365 2.262-3.06 4.314-5.027 6.09H482l1.888 1.993h.06c3.03-2.72 5.573-4.286 7.128-4.286.788 0 1.14.31 1.303 1.196-3.797 1.685-5.887 3.828-5.887 6.05 0 2.64 2.19 3.987 6.5 3.987 2.405.004 4.802-.226 7.16-.688h.06l-.434-2.99h-.082c-2.195.532-4.444.82-6.704.857-3.028 0-3.452-.718-3.452-1.346 0-.628.353-1.814 3.028-2.99V64.564h2.847v-.09c0-1.464 0-2.65-.09-3.717 2.02-.727 4.442-1.445 6.592-1.993h.08l-.757-2.9-.06.03zM511 62c-2.21 0-4 1.79-4 4s1.79 4 4 4 4-1.79 4-4c.016-1.066-.4-2.092-1.154-2.846-.754-.754-1.78-1.17-2.846-1.154zm0 6.11c-.8.055-1.566-.342-1.984-1.028-.417-.686-.417-1.548 0-2.234.418-.686 1.183-1.082 1.984-1.028.566-.005 1.11.218 1.512.618.4.4.623.946.618 1.512-.01 1.175-.955 2.128-2.13 2.15v.01zM435 53h8v2h-8zM448.138 63.06l-.047-.06-2.09.984.074.098c1.06 1.496 1.958 3.112 2.677 4.82l.047.098 2.12-1.25H451l-.046-.088c-.78-1.637-1.723-3.18-2.816-4.603zM432.753 63v.1c-.4 1.672-1.333 3.187-2.675 4.34l-.078.083L432.198 69l.06-.055c1.33-1.405 2.27-3.097 2.742-4.927v-.073l-2.15-.917-.097-.028z"/><path d="M445.22 65.214c0 .144-.053.65-.075.822-.075.307-.15.443-.29.524-1.102.266-2.252.36-3.394.28-2.552 0-2.66-.08-2.66-.424V63H436v4.084c0 1.59.894 1.916 5.29 1.916 3.295 0 4.803-.18 5.568-.66.765-.48.96-1.093 1.142-2.71v-.1l-2.79-.795.01.48z"/><path d="M442.047 66.925l.06.075L444 65.445l-.08-.075c-.922-.906-1.96-1.702-3.086-2.37h-.06L439 64.227l.108.075c1.117.725 2.108 1.61 2.94 2.623z"/><path d="M449.816 57.873c-.2 1.948-.543 2.675-.714 2.675-.296-.133-.565-.317-.796-.545-.345-.353-.655-.74-.925-1.15.79-1.08 1.484-2.224 2.074-3.423.197-.407.372-.825.523-1.252l-2.214-.91c-.47 1.096-1.004 2.16-1.6 3.19-.442-1.26-.74-2.567-.886-3.895h6.14V50.22h-2.235l.916-.605-.11-.09c-.997-.748-2.195-1.525-2.195-1.525l-1.952 1.19s.927.607 1.51 1.01h-2.254v-.474-1.585h-2.707v2.061H431.84v2.98c.036 1.867-.116 3.733-.453 5.57-.225 1.17-.677 2.286-1.33 3.282l-.06.09L432.234 64l.07-.1c.693-1.088 1.193-2.287 1.48-3.544.516-2.564.75-5.178.694-7.793h8.233c.236 2.136.818 4.22 1.722 6.168-.64.69-1.343 1.316-2.104 1.868V56.56h-7.447v5.36h6.814l1.218 1.232.08-.05c.993-.663 1.908-1.435 2.728-2.302 1.127 1.534 2.456 2.443 3.573 2.443 1.338 0 2.093-1.09 2.707-3.897v-.07h-.06c-.886-.485-2.124-1.403-2.124-1.403zm-9.812 2.018h-2.798v-1.26h2.798v1.26zM459.473 52.98h15.015V56H477v-5.026h-3.66c.445-.624 1.425-2.25 1.425-2.25l-2.592-.597s-.99 1.807-1.68 2.847h-1.85c-.438-1.004-.95-1.98-1.534-2.92V48l-2.514.46h-.148l.08.11c.544.745.998 1.542 1.354 2.377h-2.255c-.57-.973-1.21-1.91-1.92-2.802V48.1l-2.61.515.09.117c.61.69 1.148 1.43 1.6 2.215H457V56h2.532l-.06-3.02z"/><path d="M476.255 64.21c.064.896-.033 1.796-.286 2.656-.143.332-.623.405-2.674.405-1.704 0-1.765-.113-1.765-.61v-2.19h3.664V54h-14.04v10.47h2.49c-.35.902-1.07 1.603-1.97 1.92-1.448.54-2.97.85-4.51.912H457L458.388 70h.07c1.87-.2 3.683-.757 5.348-1.64 1.436-.854 2.467-2.267 2.857-3.91h2.215v3.33c0 1.722.877 1.95 4.367 1.95 2.52 0 3.745-.155 4.377-.53.96-.6 1.276-1.566 1.378-4.15v-.082l-2.755-.924.01.166zm-12.418-8.156h8.704v.81h-8.703v-.81zm0 2.72h8.704v.85h-8.703v-.85zm0 2.738h8.704v.8h-8.703v-.8z"/></g></g></svg>