<svg xmlns="http://www.w3.org/2000/svg" width="240" height="20.307" fill="white" viewBox="0 0 240 20.307"><g transform="translate(-352.671 -379.058)"><path class="a" d="M421.392,382.2l-.535,1.326H409.538l.536-1.326Zm5.033-.871a2.423,2.423,0,0,0-.32-1.173,2.185,2.185,0,0,0-.866-.8,2.734,2.734,0,0,0-1.292-.294h-17.57l-4.947,12.249,4.975-.025,1.913-4.736h11.318l-1.923,4.757h4.967l1.849-4.575-.863-1.449,1.985-1.413.048-.035.456-1.13a3.384,3.384,0,0,0,.27-1.372" transform="translate(-26.196 -0.001)"/><path class="a" d="M474.431,379.06l-3.561,8.813H459.552l3.561-8.813h-4.967l-3.474,8.6a3.335,3.335,0,0,0-.269,1.371,2.391,2.391,0,0,0,.319,1.172,2.165,2.165,0,0,0,.866.806,2.721,2.721,0,0,0,1.292.293h14.2a4.165,4.165,0,0,0,1.448-.273,5.812,5.812,0,0,0,1.341-.711A6.218,6.218,0,0,0,475,389.272a4.927,4.927,0,0,0,.8-1.318l3.594-8.894Z" transform="translate(-54.656 -0.001)"/><path class="a" d="M689.223,381.218a2.308,2.308,0,0,0-.3-1.112,2.047,2.047,0,0,0-.82-.762,2.688,2.688,0,0,0-1.262-.284h-7.549l-2.182,1.129-1.161-1.074-.07-.055H668.26a4.2,4.2,0,0,0-1.448.273,5.7,5.7,0,0,0-1.341.711,6.127,6.127,0,0,0-1.134,1.051,4.923,4.923,0,0,0-.8,1.317l-3.6,8.893h4.967l3.679-9.1h5.285l-3.563,8.824-.1.28h4.965l3.678-9.1h5.285l-3.678,9.1h4.967l3.53-8.741a3.333,3.333,0,0,0,.269-1.347" transform="translate(-165.087 -0.001)"/><path class="a" d="M378.4,379.06H357.082l-4.411,3.142h11l-3.678,9.1h4.965l3.678-9.1h8.491Z" transform="translate(0 -0.001)"/><path class="a" d="M509.849,379.332a5.752,5.752,0,0,0-1.34.709,6.082,6.082,0,0,0-1.133,1.052,4.946,4.946,0,0,0-.8,1.318l-2.121,5.252a3.35,3.35,0,0,0-.27,1.37,2.386,2.386,0,0,0,.321,1.171,2.167,2.167,0,0,0,.866.808,2.76,2.76,0,0,0,1.291.292h16.7l1.268-3.141h-15.41l.653-1.617h15.411l1.221-3.02H511.089l.535-1.327h15.417l1.269-3.141H511.3a4.169,4.169,0,0,0-1.448.274" transform="translate(-81.401)"/><path class="a" d="M739.413,382.2l-.535,1.326H727.559l.536-1.326Zm4.472.5a3.388,3.388,0,0,0,.27-1.373,2.433,2.433,0,0,0-.319-1.169h0a2.188,2.188,0,0,0-.866-.806,2.755,2.755,0,0,0-1.292-.292H724.4l-4.947,12.245h4.967l1.9-4.7H738.3l.588,0a4.28,4.28,0,0,0,1.449-.276,5.934,5.934,0,0,0,1.373-.727,6.211,6.211,0,0,0,1.161-1.077,5.055,5.055,0,0,0,.821-1.349Z" transform="translate(-197.059 -0.002)"/><path class="a" d="M635.066,386.548l1.221-3.02H620.876l.537-1.327h15.415l1.27-3.141h-16.43a7.918,7.918,0,0,0-2.031.274,5.733,5.733,0,0,0-1.341.71,6.079,6.079,0,0,0-1.132,1.05,4.949,4.949,0,0,0-.8,1.318l-2.121,5.252a3.372,3.372,0,0,0-.271,1.371,2.421,2.421,0,0,0,.321,1.172,2.182,2.182,0,0,0,.867.807,5.749,5.749,0,0,0,1.873.292h16.114l1.269-3.14H619l.653-1.617Z" transform="translate(-140.387 -0.001)"/><path class="a" d="M776.959,386.548h15.7l1.221-3.02h-15.7l.537-1.327h15.707l1.269-3.141H778.972a7.919,7.919,0,0,0-2.031.274,5.751,5.751,0,0,0-1.34.709,6.069,6.069,0,0,0-1.133,1.051,4.973,4.973,0,0,0-.8,1.318l-2.121,5.252a3.341,3.341,0,0,0-.27,1.371,2.414,2.414,0,0,0,.32,1.172,2.184,2.184,0,0,0,.867.807,5.754,5.754,0,0,0,1.873.292H790.74l1.268-3.14h-15.7Z" transform="translate(-224.901 -0.001)"/><path class="a" d="M837.273,382.2l-.536,1.326H825.419l.535-1.326Zm4.713-2.043a2.193,2.193,0,0,0-.865-.8h0a2.738,2.738,0,0,0-1.292-.294h-17.57l-4.947,12.248,4.974-.025,1.914-4.736h11.318l-1.922,4.757h4.966l1.85-4.575-.863-1.449,2.032-1.448.457-1.13a3.382,3.382,0,0,0,.27-1.372,2.43,2.43,0,0,0-.32-1.173" transform="translate(-249.636 -0.001)"/><path class="a" d="M588.51,379.06H567.192l-4.411,3.142h11l-3.678,9.1h4.965l3.679-9.1h8.49Z" transform="translate(-112.885 -0.001)"/><path class="a" d="M765.132,415.8a2.328,2.328,0,0,1-.445.414,2.2,2.2,0,0,1-.527.278,1.591,1.591,0,0,1-.543.1h-5.123l.6-1.488h4.93l.205-.507H760.6l-.78-1.295.358-.885a1.892,1.892,0,0,1,.3-.5,2.318,2.318,0,0,1,.445-.415,2.192,2.192,0,0,1,.526-.277,1.592,1.592,0,0,1,.543-.1h5.123l-.6,1.488h-4.93l-.2.5h3.635l.775,1.287-.364.9a1.913,1.913,0,0,1-.3.5" transform="translate(-218.036 -17.228)"/><path class="a" d="M778.6,412.611l-.2.5h3.442l.2-.5Zm2.849,1.987H777.8L777,416.592h-1.488l2.21-5.468h5.122a1.009,1.009,0,0,1,.462.1.734.734,0,0,1,.3.277.834.834,0,0,1,.11.415,1.264,1.264,0,0,1-.1.5l-.36.893Z" transform="translate(-227.177 -17.228)"/><path class="a" d="M799.548,412.612h-3.442L795.1,415.1h3.442Zm.1,3.189a2.327,2.327,0,0,1-.445.414,2.2,2.2,0,0,1-.527.278,1.591,1.591,0,0,1-.543.1H794.3a1,1,0,0,1-.462-.1.728.728,0,0,1-.3-.278.82.82,0,0,1-.11-.414,1.276,1.276,0,0,1,.1-.5l1.164-2.879a1.892,1.892,0,0,1,.3-.5,2.318,2.318,0,0,1,.445-.415,2.193,2.193,0,0,1,.526-.277,1.592,1.592,0,0,1,.543-.1h3.828a1,1,0,0,1,.462.1.735.735,0,0,1,.3.277.834.834,0,0,1,.11.415,1.266,1.266,0,0,1-.1.5L799.95,415.3a1.909,1.909,0,0,1-.3.5" transform="translate(-236.806 -17.228)"/><path class="a" d="M816.091,412.612h-3.442l-.2.5h3.441Zm-1.609,3.98.806-1.994h-3.441l-.8,1.986-1.491.008,2.21-5.468h5.122a1,1,0,0,1,.462.1.736.736,0,0,1,.3.277.833.833,0,0,1,.11.415,1.265,1.265,0,0,1-.1.5l-.364.9-.745.531.313.539-.89,2.2Z" transform="translate(-245.468 -17.228)"/><path class="a" d="M834,412.611l-1.608,3.981h-1.5l1.608-3.981h-2.461l.6-1.488h6.417l-.6,1.488Z" transform="translate(-256.476 -17.228)"/><path class="a" d="M850.217,415.8a2.315,2.315,0,0,1-.445.414,2.194,2.194,0,0,1-.527.278,1.588,1.588,0,0,1-.543.1H843.58l.6-1.488h4.93l.2-.507h-3.627l-.78-1.295.357-.885a1.906,1.906,0,0,1,.3-.5,2.319,2.319,0,0,1,.445-.415,2.187,2.187,0,0,1,.526-.277,1.587,1.587,0,0,1,.543-.1h5.123l-.6,1.488h-4.93l-.2.5h3.635l.775,1.287-.364.9a1.911,1.911,0,0,1-.3.5" transform="translate(-263.75 -17.228)"/></g></svg>