<?xml version="1.0" standalone="no"?>
<!DOCTYPE svg PUBLIC "-//W3C//DTD SVG 20010904//EN"
 "http://www.w3.org/TR/2001/REC-SVG-20010904/DTD/svg10.dtd">
<svg version="1.0" xmlns="http://www.w3.org/2000/svg"
 width="676.000000pt" height="676.000000pt" viewBox="0 0 676.000000 676.000000"
 preserveAspectRatio="xMidYMid meet">
<metadata>
Created by potrace 1.14, written by Peter Selinger 2001-2017
</metadata>
<g transform="translate(0.000000,676.000000) scale(0.100000,-0.100000)"
fill="#000000" stroke="none">
<path d="M3169 6746 c-2 -2 -40 -7 -83 -11 -43 -4 -88 -9 -100 -11 -12 -2 -36
-6 -53 -9 -30 -4 -79 -12 -128 -22 -11 -2 -36 -6 -55 -9 -164 -27 -570 -174
-730 -264 -14 -8 -31 -15 -39 -16 -8 -2 -17 -6 -20 -11 -3 -4 -24 -17 -46 -28
-22 -11 -44 -23 -50 -28 -5 -4 -60 -40 -120 -80 -112 -73 -171 -114 -191 -132
-6 -5 -30 -26 -54 -45 -82 -66 -124 -105 -215 -195 -142 -142 -152 -155 -136
-165 8 -4 24 -4 37 0 12 5 24 6 27 3 7 -6 181 -8 193 -1 5 2 20 3 34 1 33 -3
103 -5 161 -4 36 1 53 7 80 32 107 97 327 246 489 331 244 130 548 231 790
264 25 3 48 8 51 10 17 10 196 19 374 19 228 -1 314 -8 480 -40 140 -27 301
-70 360 -95 11 -5 31 -12 45 -15 28 -8 42 -14 197 -83 124 -55 264 -135 388
-220 71 -48 161 -116 175 -132 3 -3 24 -20 47 -38 36 -28 51 -33 101 -34 32
-1 63 1 68 3 5 3 20 4 34 2 24 -2 235 -5 313 -4 l37 1 -27 32 c-48 56 -227
231 -276 271 -25 21 -52 44 -59 50 -43 43 -297 221 -373 263 -11 6 -38 21 -60
34 -110 63 -402 195 -475 215 -3 0 -41 13 -85 27 -73 24 -146 45 -185 53 -8 2
-49 11 -90 20 -41 9 -91 18 -110 21 -19 3 -46 7 -60 10 -14 2 -43 7 -65 9 -22
3 -56 7 -75 10 -40 7 -515 16 -521 11z"/>
<path d="M216 5482 c-3 -5 17 -46 44 -92 28 -46 50 -85 50 -87 0 -2 25 -44 55
-94 30 -50 55 -92 55 -94 0 -3 27 -50 60 -106 33 -55 60 -103 60 -106 0 -3 8
-17 19 -31 10 -15 29 -47 43 -72 14 -25 67 -117 118 -205 51 -88 101 -176 112
-195 34 -58 284 -493 304 -527 75 -126 114 -197 114 -204 0 -5 5 -9 10 -9 6 0
10 -4 10 -10 0 -5 88 -161 195 -346 107 -185 195 -340 195 -345 0 -5 4 -9 9
-9 5 0 11 -8 14 -17 3 -10 20 -40 36 -68 17 -27 38 -65 48 -82 9 -18 21 -33
27 -33 6 1 54 76 106 168 52 92 99 170 105 174 5 4 7 8 3 8 -4 0 8 25 27 55
19 30 35 57 35 60 0 3 15 29 33 58 18 29 44 73 57 100 14 26 28 47 32 47 5 0
8 5 8 10 0 6 18 40 40 76 22 36 40 68 40 71 0 3 15 31 34 62 19 31 43 72 53
91 24 43 190 329 203 350 5 8 22 38 38 65 16 28 39 68 52 90 12 22 34 60 48
85 14 25 33 57 43 72 11 14 19 29 19 32 0 3 14 28 31 56 17 28 28 54 24 58 -9
9 -1015 10 -1021 1 -2 -5 14 -37 36 -74 22 -36 40 -67 40 -69 0 -2 35 -64 78
-138 43 -74 81 -141 84 -149 7 -17 -239 -450 -258 -456 -6 -2 -14 4 -17 14 -8
25 -50 97 -59 101 -5 2 -8 7 -8 12 0 7 -73 139 -100 180 -6 8 -13 22 -17 30
-4 8 -41 74 -84 145 -76 129 -109 188 -145 255 -11 19 -21 37 -24 40 -3 3 -28
43 -54 90 -27 47 -60 105 -74 130 -14 25 -45 78 -69 118 -24 41 -43 78 -43 83
0 5 -4 9 -8 9 -4 0 -15 15 -23 33 -9 17 -28 54 -44 80 -15 26 -25 50 -22 53 3
3 1195 6 2649 6 2456 0 2644 1 2658 16 8 9 21 28 28 42 6 14 20 39 30 55 86
147 183 317 188 330 6 13 -309 15 -3159 15 -1741 0 -3168 -4 -3171 -8z"/>
<path d="M3400 4572 c-8 -1 -31 -31 -51 -65 -58 -102 -263 -455 -280 -485 -9
-15 -26 -45 -39 -67 -12 -22 -74 -130 -138 -240 -64 -110 -122 -211 -129 -225
-8 -14 -68 -117 -133 -230 -66 -113 -166 -285 -222 -383 -57 -98 -110 -190
-119 -205 -9 -15 -27 -47 -41 -72 -14 -25 -49 -85 -78 -135 -29 -49 -65 -112
-80 -140 l-28 -50 22 -40 c12 -22 38 -68 59 -103 20 -35 37 -65 37 -68 0 -2
11 -21 23 -42 13 -20 32 -50 43 -67 10 -16 19 -32 19 -35 0 -3 8 -16 16 -30
46 -72 89 -149 89 -159 0 -6 5 -11 10 -11 6 0 10 -6 10 -14 0 -7 7 -19 15 -26
8 -7 13 -16 10 -20 -3 -5 -1 -11 4 -14 5 -4 23 -30 39 -59 16 -28 86 -151 156
-272 71 -121 142 -245 158 -275 17 -30 39 -67 49 -82 11 -14 19 -28 19 -31 0
-3 52 -94 115 -202 63 -109 115 -200 115 -202 0 -3 8 -17 19 -31 10 -15 34
-54 52 -88 74 -132 234 -404 239 -404 5 0 62 95 123 204 16 28 45 78 65 111
20 33 37 62 37 65 0 3 8 16 17 30 8 14 152 261 318 550 166 289 312 541 324
560 12 19 33 56 46 83 14 26 28 47 32 47 5 0 8 4 8 10 0 9 62 119 200 355 29
50 63 109 76 132 13 23 80 139 149 257 69 119 125 220 125 225 0 5 3 11 8 13
4 2 56 89 116 193 139 242 123 214 268 465 309 535 348 602 348 611 0 5 5 9
10 9 6 0 10 4 10 9 0 4 81 149 180 320 100 171 179 315 176 319 -3 6 -452 9
-503 3 -12 -1 -243 -391 -243 -409 0 -6 -4 -12 -8 -14 -6 -2 -185 -307 -271
-461 -9 -16 -20 -36 -26 -45 -5 -9 -44 -75 -85 -147 -41 -71 -80 -139 -87
-150 -7 -11 -15 -27 -19 -35 -5 -8 -23 -38 -41 -67 -18 -29 -33 -54 -33 -57 0
-3 -22 -43 -49 -88 -119 -200 -371 -642 -371 -649 0 -5 -4 -9 -8 -9 -4 0 -13
-12 -19 -27 -12 -29 -54 -104 -63 -113 -5 -5 -13 -19 -58 -99 -14 -25 -36 -63
-49 -83 -12 -21 -23 -42 -23 -48 0 -5 -4 -10 -9 -10 -5 0 -13 -9 -16 -20 -3
-11 -58 -108 -121 -216 -63 -108 -114 -199 -114 -201 0 -3 -8 -17 -19 -31 -10
-15 -29 -47 -43 -72 -14 -25 -42 -72 -61 -105 -20 -33 -46 -80 -59 -105 -13
-25 -27 -49 -31 -55 -16 -21 -197 -338 -197 -347 0 -19 -30 -6 -43 19 -8 16
-38 69 -67 118 -90 154 -110 189 -123 215 -6 14 -14 27 -17 30 -3 3 -11 17
-19 31 -12 25 -10 32 25 95 21 38 42 70 46 72 4 2 8 7 8 12 0 4 32 64 71 132
40 67 101 175 137 238 35 63 75 131 87 150 22 33 48 80 91 160 11 19 22 37 27
38 4 2 7 7 7 12 0 5 33 64 73 132 40 68 76 130 80 138 4 8 22 40 40 70 17 31
51 89 75 130 24 41 47 82 52 90 14 22 289 497 318 550 14 25 114 199 224 387
109 188 198 347 198 352 0 6 4 11 8 11 4 0 18 19 30 43 12 23 30 56 40 72 42
71 178 308 190 330 7 14 11 29 8 33 -5 8 -502 10 -509 2 -11 -11 -157 -263
-157 -270 0 -5 -6 -15 -12 -22 -16 -17 -56 -84 -71 -120 -6 -16 -15 -28 -19
-28 -4 0 -8 -4 -8 -10 0 -5 -24 -50 -54 -100 -30 -49 -51 -90 -48 -90 4 0 2
-4 -4 -8 -6 -4 -23 -28 -37 -54 -33 -60 -175 -304 -198 -343 -11 -16 -22 -37
-26 -45 -3 -8 -16 -31 -28 -50 -12 -19 -34 -57 -50 -85 -40 -73 -175 -306
-193 -335 -9 -14 -15 -28 -14 -32 1 -5 -3 -8 -8 -8 -6 0 -10 -5 -10 -10 0 -6
-11 -27 -23 -48 -13 -20 -35 -57 -49 -82 -14 -25 -49 -85 -78 -135 -29 -49
-66 -115 -83 -145 -17 -30 -46 -78 -64 -107 -18 -29 -33 -54 -33 -57 0 -2 -55
-98 -121 -213 -141 -242 -160 -274 -189 -327 -27 -48 -25 -50 -125 124 -43 74
-91 158 -107 185 -16 28 -35 64 -43 81 -16 34 -23 18 137 292 16 26 32 56 38
67 6 11 18 34 28 50 10 17 30 50 44 75 14 25 58 101 98 170 41 69 83 143 96
165 55 100 109 190 116 193 5 2 8 8 8 14 0 5 16 37 36 71 20 34 48 82 62 106
14 25 38 67 53 93 16 27 29 53 29 58 0 4 4 10 8 12 5 2 22 28 38 58 17 30 82
143 144 250 62 107 121 209 130 225 10 17 41 71 70 120 29 50 66 115 82 145
17 30 34 60 38 65 20 26 59 105 52 106 -16 3 -488 4 -502 1z"/>
<path d="M481 4439 c-19 -74 -35 -161 -47 -264 -3 -33 -8 -63 -10 -67 -5 -8
-18 -246 -18 -338 0 -85 12 -277 19 -330 3 -19 7 -51 9 -70 20 -186 73 -389
181 -690 37 -103 190 -394 272 -520 122 -185 233 -321 388 -476 129 -129 295
-274 314 -274 5 0 11 -4 13 -9 2 -7 177 -128 243 -168 162 -99 387 -203 581
-269 56 -19 104 -34 108 -34 7 0 -14 39 -73 138 -17 29 -31 57 -31 62 0 6 -4
10 -10 10 -5 0 -10 4 -10 9 0 5 -26 54 -57 108 -32 54 -64 109 -71 123 -24 46
-36 56 -112 95 -151 78 -440 272 -440 296 0 5 -6 9 -14 9 -22 0 -275 256 -365
369 -179 225 -304 443 -404 701 -28 70 -56 153 -63 179 -2 9 -15 60 -29 114
-13 54 -32 140 -40 190 -9 51 -18 102 -20 114 -14 83 -23 356 -15 453 6 75 16
53 -146 330 -59 102 -115 200 -124 219 l-17 33 -12 -43z"/>
<path d="M6251 4449 c-6 -13 -23 -45 -38 -70 -16 -26 -64 -109 -108 -185 -43
-77 -82 -141 -85 -144 -3 -3 -13 -21 -22 -40 -15 -29 -18 -59 -16 -175 4 -242
-17 -443 -69 -660 -34 -143 -86 -298 -149 -445 -27 -62 -126 -255 -139 -270
-6 -8 -15 -22 -19 -30 -10 -23 -30 -56 -49 -82 -9 -13 -42 -59 -73 -103 -216
-303 -539 -583 -884 -765 l-95 -50 -80 -142 c-44 -78 -101 -177 -127 -221 -27
-43 -48 -82 -48 -87 0 -5 -7 -16 -16 -25 -31 -30 -4 -28 98 9 57 21 108 38
113 40 56 16 236 100 360 168 329 180 616 413 851 693 79 95 154 194 154 204
0 5 3 11 8 13 7 3 84 115 91 133 2 6 12 21 21 35 22 33 68 117 115 210 20 41
45 92 56 113 10 22 19 44 19 50 0 7 7 26 16 42 14 27 101 277 110 318 2 9 6
25 9 35 11 40 44 190 49 222 3 19 8 46 11 60 3 14 8 45 11 70 2 25 7 61 9 80
25 197 23 501 -5 700 -5 38 -9 73 -9 78 1 4 0 9 -1 12 -3 9 -10 44 -15 79 -2
18 -7 41 -9 50 -3 9 -8 32 -11 51 -8 47 -22 59 -34 29z"/>
</g>
</svg>
